<?xml version="1.0" encoding="UTF-8" standalone="no"?>
<svg xmlns="http://www.w3.org/2000/svg" viewBox="0 0 300 100" width="300" height="100">
  <g fill="#A4123F">
    <path d="M50,20 C32.5,20 18.5,34 18.5,51.5 C18.5,69 32.5,83 50,83 C67.5,83 81.5,69 81.5,51.5 C81.5,34 67.5,20 50,20 Z M50,75 C37,75 26.5,64.5 26.5,51.5 C26.5,38.5 37,28 50,28 C63,28 73.5,38.5 73.5,51.5 C73.5,64.5 63,75 50,75 Z"/>
    <path d="M50,35 C40.5,35 33,42.5 33,52 C33,61.5 40.5,69 50,69 C59.5,69 67,61.5 67,52 C67,42.5 59.5,35 50,35 Z"/>
    <path d="M100,30 L110,30 L125,70 L140,30 L150,30 L130,80 L120,80 Z"/>
    <path d="M160,30 L170,30 L170,80 L160,80 Z"/>
    <path d="M180,30 L190,30 L210,60 L230,30 L240,30 L240,80 L230,80 L230,45 L210,70 L190,45 L190,80 L180,80 Z"/>
    <path d="M250,30 L260,30 L260,70 L290,70 L290,80 L250,80 Z"/>
    <path d="M100,90 L290,90 L290,95 L100,95 Z"/>
  </g>
</svg>
